<svg width="20" height="20" viewBox="0 0 20 20" fill="none" xmlns="http://www.w3.org/2000/svg">
<path d="M13.75 18.125C16.1662 18.125 18.125 16.1662 18.125 13.75C18.125 11.3338 16.1662 9.375 13.75 9.375C11.3338 9.375 9.375 11.3338 9.375 13.75C9.375 16.1662 11.3338 18.125 13.75 18.125Z" stroke="#A6A6A6" stroke-width="1.2" stroke-miterlimit="10" stroke-linecap="round" stroke-linejoin="round"/>
<path d="M13.75 10.625V13.75L15.625 12.5" stroke="#A6A6A6" stroke-width="1.2" stroke-miterlimit="10" stroke-linejoin="round"/>
<path d="M3.125 7.5H13.125" stroke="#A6A6A6" stroke-width="1.2" stroke-miterlimit="10" stroke-linecap="round" stroke-linejoin="round"/>
<path d="M6.5625 5.0625L5.8125 2.4375C7.25 1.6875 9 1.6875 10.4375 2.4375L9.6875 5.0625" stroke="#A6A6A6" stroke-width="1.2" stroke-miterlimit="10" stroke-linecap="round" stroke-linejoin="round"/>
<path d="M10.3125 3.0625C11.5625 3.8125 12.375 5.1875 12.375 6.75V7.5" stroke="#A6A6A6" stroke-width="1.2" stroke-miterlimit="10" stroke-linecap="round" stroke-linejoin="round"/>
<path d="M3.875 7.5V6.75C3.875 5.1875 4.6875 3.8125 5.9375 3.0625" stroke="#A6A6A6" stroke-width="1.2" stroke-miterlimit="10" stroke-linecap="round" stroke-linejoin="round"/>
<path d="M5 7.5V8.75C5 10.0625 5.5625 11.25 6.5625 11.875C6.5625 13.1875 5.75 14.3125 4.5625 14.625C3.1875 15 2.1875 16.25 1.875 17.75C1.875 17.9375 2 18.125 2.1875 18.125H8.125" stroke="#A6A6A6" stroke-width="1.2" stroke-miterlimit="10" stroke-linecap="round" stroke-linejoin="round"/>
</svg>
